
<svg
  version="1.0"
  xmlns="http://www.w3.org/2000/svg"
  xmlns:xlink="http://www.w3.org/1999/xlink"
  width="2400"
  height="1800"
>
  
  <rect
    x="0"
    y="0"
    width="100%"
    height="100%"
    fill="#FFFFFF"
    fill-opacity="1"
  ></rect>
  <svg
    version="1.0"
    xmlns="http://www.w3.org/2000/svg"
    xmlns:xlink="http://www.w3.org/1999/xlink"
    x="0"
    y="0"
    width="2400"
    height="1800"
    viewBox="0 0 340.000000 250.000000"
    preserveAspectRatio="xMidYMid meet"
    color-interpolation-filters="sRGB"
  >
    <defs><linearGradient id="92" x1="0%" y1="0%" x2="100%" y2="0%"><stop offset="0%" stop-color="#fa71cd"/> <stop offset="100%" stop-color="#9b59b6"/></linearGradient><linearGradient id="93" x1="0%" y1="0%" x2="100%" y2="0%"><stop offset="0%" stop-color="#f9d423"/> <stop offset="100%" stop-color="#f83600"/></linearGradient><linearGradient id="94" x1="0%" y1="0%" x2="100%" y2="0%"><stop offset="0%" stop-color="#0064d2"/> <stop offset="100%" stop-color="#1cb0f6"/></linearGradient><linearGradient id="95" x1="0%" y1="0%" x2="100%" y2="0%"><stop offset="0%" stop-color="#f00978"/> <stop offset="100%" stop-color="#3f51b1"/></linearGradient><linearGradient id="96" x1="0%" y1="0%" x2="100%" y2="0%"><stop offset="0%" stop-color="#7873f5"/> <stop offset="100%" stop-color="#ec77ab"/></linearGradient><linearGradient id="97" x1="0%" y1="0%" x2="100%" y2="0%"><stop offset="0%" stop-color="#f9d423"/> <stop offset="100%" stop-color="#e14fad"/></linearGradient><linearGradient id="98" x1="0%" y1="0%" x2="100%" y2="0%"><stop offset="0%" stop-color="#009efd"/> <stop offset="100%" stop-color="#2af598"/></linearGradient><linearGradient id="99" x1="0%" y1="0%" x2="100%" y2="0%"><stop offset="0%" stop-color="#ffcc00"/> <stop offset="100%" stop-color="#00b140"/></linearGradient><linearGradient id="100" x1="0%" y1="0%" x2="100%" y2="0%"><stop offset="0%" stop-color="#d51007"/> <stop offset="100%" stop-color="#ff8177"/></linearGradient><linearGradient id="102" x1="0%" y1="0%" x2="100%" y2="0%"><stop offset="0%" stop-color="#a2b6df"/> <stop offset="100%" stop-color="#0c3483"/></linearGradient><linearGradient id="103" x1="0%" y1="0%" x2="100%" y2="0%"><stop offset="0%" stop-color="#7ac5d8"/> <stop offset="100%" stop-color="#eea2a2"/></linearGradient><linearGradient id="104" x1="0%" y1="0%" x2="100%" y2="0%"><stop offset="0%" stop-color="#00ecbc"/> <stop offset="100%" stop-color="#007adf"/></linearGradient><linearGradient id="105" x1="0%" y1="0%" x2="100%" y2="0%"><stop offset="0%" stop-color="#b88746"/> <stop offset="100%" stop-color="#fdf5a6"/></linearGradient></defs> <g fill="#ec7210" class="icon-text-wrapper icon-svg-group iconsvg" transform="translate(50.5050048828125,83.99958801269531)"><g class="iconsvg-imagesvg" transform="translate(0,0)"><g><rect fill="#ec7210" fill-opacity="0" stroke-width="2" x="0" y="0" width="60" height="82.00082000820008" class="image-rect"/> <svg filter="url(#colors2491164386)" x="0" y="0" width="60" height="82.00082000820008" filtersec="colorsf4129096520" class="image-svg-svg primary" style="overflow: visible;"><svg xmlns="http://www.w3.org/2000/svg" xmlns:xlink="http://www.w3.org/1999/xlink" version="1.1" x="0px" y="0px" viewBox="17.07400131225586 5 65.85198974609375 89.99899291992188" enable-background="new 0 0 100 100" xml:space="preserve"><path d="M39.024,82.378H28.049c-0.606,0-1.098-0.491-1.098-1.099V70.305c0-0.605,0.491-1.098,1.098-1.098h10.976  c0.606,0,1.098,0.491,1.098,1.098v10.975C40.122,81.887,39.631,82.378,39.024,82.378z M29.146,80.184h8.78v-8.781h-8.78V80.184z"/><path d="M71.402,39.024H45.061c-0.303,0-0.549-0.246-0.549-0.549V36.28c0-0.304,0.246-0.549,0.549-0.549h26.341  c0.305,0,0.55,0.245,0.55,0.549v2.195C71.951,38.778,71.706,39.024,71.402,39.024z"/><path d="M71.402,58.23H45.061c-0.303,0-0.549-0.246-0.549-0.549v-2.193c0-0.305,0.246-0.549,0.549-0.549h26.341  c0.305,0,0.55,0.244,0.55,0.549v2.193C71.951,57.984,71.706,58.23,71.402,58.23z"/><path d="M71.402,77.439H45.061c-0.303,0-0.549-0.248-0.549-0.549v-2.195c0-0.305,0.246-0.549,0.549-0.549h26.341  c0.305,0,0.55,0.244,0.55,0.549v2.195C71.951,77.191,71.706,77.439,71.402,77.439z"/><path d="M77.439,18.171H64.816v2.854h12.623c1.451,0,2.634,1.181,2.634,2.634v65.854c0,1.451-1.183,2.635-2.634,2.635H22.561  c-1.452,0-2.634-1.184-2.634-2.635V23.658c0-1.453,1.182-2.634,2.634-2.634h12.622V18.17H22.561c-3.03,0-5.487,2.456-5.487,5.487  v65.854c0,3.031,2.457,5.488,5.487,5.488h54.878c3.031,0,5.487-2.457,5.487-5.488V23.658C82.927,20.627,80.471,18.171,77.439,18.171  z"/><path d="M50,7.854c2.359,0,4.281,1.921,4.281,4.28c0,2.36-1.922,4.281-4.281,4.281c-2.36,0-4.281-1.921-4.281-4.281  C45.719,9.774,47.64,7.854,50,7.854 M50,5c-3.939,0-7.134,3.194-7.134,7.134c0,3.938,3.194,7.135,7.134,7.135  c3.941,0,7.134-3.196,7.134-7.135C57.134,8.194,53.941,5,50,5L50,5z"/><path d="M37.927,37.577v4.191h-8.78v-8.78h7.081l2.078-2.195H28.049c-0.606,0-1.098,0.49-1.098,1.098v10.976  c0,0.606,0.491,1.098,1.098,1.098h10.976c0.606,0,1.098-0.491,1.098-1.098v-7.608L37.927,37.577z"/><path d="M37.927,56.785v4.189h-8.78v-8.779h7.081L38.306,50H28.049c-0.606,0-1.098,0.491-1.098,1.098v10.977  c0,0.605,0.491,1.098,1.098,1.098h10.976c0.606,0,1.098-0.49,1.098-1.098v-7.608L37.927,56.785z"/><path d="M62.073,12.353h-6.608c-0.041,1.053-0.363,2.034-0.919,2.854h7.527c0.727,0,1.317,0.592,1.317,1.318v5.487  c0,0.728-0.592,1.316-1.317,1.316H37.927c-0.727,0-1.317-0.589-1.317-1.316v-5.487c0-0.727,0.591-1.318,1.317-1.318h7.527  c-0.555-0.819-0.878-1.801-0.919-2.854h-6.608c-2.3,0-4.171,1.872-4.171,4.172v5.487c0,2.301,1.871,4.17,4.171,4.17h24.146  c2.3,0,4.171-1.869,4.171-4.17v-5.487C66.244,14.225,64.373,12.353,62.073,12.353z"/><path d="M33.536,40.122c-0.04,0-0.081-0.002-0.121-0.007c-0.342-0.038-0.646-0.235-0.821-0.531l-1.803-3.033  c-0.311-0.521-0.14-1.194,0.382-1.503c0.521-0.313,1.194-0.14,1.504,0.382l1.062,1.785l6.272-6.628  c0.417-0.441,1.112-0.459,1.552-0.043s0.459,1.11,0.043,1.552l-7.271,7.684C34.125,39.998,33.837,40.122,33.536,40.122z"/><path d="M33.536,59.329c-0.04,0-0.081-0.002-0.121-0.006c-0.342-0.039-0.646-0.236-0.821-0.532l-1.803-3.033  c-0.311-0.521-0.14-1.193,0.382-1.503c0.521-0.313,1.194-0.139,1.504,0.382l1.062,1.786l6.272-6.629  c0.417-0.439,1.112-0.458,1.552-0.043c0.439,0.416,0.459,1.11,0.043,1.554l-7.271,7.682C34.125,59.205,33.837,59.329,33.536,59.329z  "/></svg></svg> <defs><filter id="colors2491164386"><feColorMatrix type="matrix" values="0 0 0 0 0.921875  0 0 0 0 0.4453125  0 0 0 0 0.0625  0 0 0 1 0" class="icon-feColorMatrix "/></filter> <filter id="colorsf4129096520"><feColorMatrix type="matrix" values="0 0 0 0 0.99609375  0 0 0 0 0.99609375  0 0 0 0 0.99609375  0 0 0 1 0" class="icon-fecolormatrix"/></filter> <filter id="colorsb8367401958"><feColorMatrix type="matrix" values="0 0 0 0 0  0 0 0 0 0  0 0 0 0 0  0 0 0 1 0" class="icon-fecolormatrix"/></filter></defs></g></g> <g transform="translate(72,34.60161209106445)"><g fill-rule="" class="tp-name iconsvg-namesvg"><g transform="scale(1)"><g><path d="M21.09 5.7936L21.09 5.7936 21.58 8.058Q21.09 8.109 20.2 8.109L20.2 8.109Q16.74 8.109 14.82 6.12 12.89 4.131 12.1 0.357L12.1 0.357Q2.02-1.4076 2.02-14.708400000000001L2.02-14.708400000000001Q2.02-25.2858 4.25-31.6914L4.25-31.6914Q6.47-37.9338 12.69-37.9338L12.69-37.9338Q24.69-36.0672 24.69-18.6354L24.69-18.6354Q24.69-16.575 24.67-15.3102 24.65-14.0556 24.47-11.7912 24.3-9.5166 24-8.058 23.71-6.5994 23.09-4.8144 22.47-3.0192 21.61-1.9686 20.74-0.9078 19.39-0.153 18.03 0.6018 16.3 0.6018L16.3 0.6018Q16.25 0.8568 16.25 1.3056L16.25 1.3056Q16.25 3.1722 17.93 4.488 19.61 5.7936 21.09 5.7936ZM20.94-16.473L20.94-16.473Q20.94-18.441599999999998 20.79-20.4 20.64-22.3686 20.1-24.887999999999998 19.56-27.407400000000003 18.67-29.2944 17.78-31.1814 16.18-32.4972 14.57-33.8028 12.45-33.8028L12.45-33.8028Q10.96-33.8028 9.83-33.15 8.69-32.4972 8.03-31.1814 7.36-29.875799999999998 6.96-28.6416 6.57-27.407400000000003 6.4-25.387800000000002 6.22-23.378400000000003 6.2-22.2666 6.17-21.154799999999998 6.17-19.247400000000003L6.17-19.247400000000003Q6.17-16.830000000000002 6.25-15.085799999999999 6.32-13.3518 6.72-10.8834 7.11-8.415000000000001 7.8-6.8238 8.5-5.2428 9.88-4.029 11.26-2.8254 13.19-2.7234L13.19-2.7234Q16.05-2.7234 17.85-4.7838 19.66-6.8544 20.3-9.7716 20.94-12.699 20.94-16.473ZM28.05-2.8764L28.05-2.8764 28.74-5.6916Q33.04-3.3251999999999997 37.19-3.3251999999999997L37.19-3.3251999999999997Q40.15-3.3251999999999997 42.25-4.5594 44.35-5.7936 44.35-8.568000000000001L44.35-8.568000000000001Q44.35-11.0364 42.57-13.076400000000001 40.8-15.1164 38.28-16.677000000000003 35.76-18.2376 33.24-19.869600000000002 30.72-21.5118 28.94-23.908800000000003 27.16-26.2956 27.16-29.223L27.16-29.223Q27.16-32.793 29.68-35.7408 32.2-38.6886 35.76-38.6886L35.76-38.6886Q38.47-38.6886 41.81-37.576800000000006 45.14-36.4752 47.41-35.363400000000006L47.41-35.363400000000006 46.82-33.354000000000006Q41.19-35.3124 37.34-35.3124L37.34-35.3124Q34.97-35.3124 33.29-33.7518 31.61-32.1912 31.61-29.7228L31.61-29.7228Q31.61-27.856199999999998 32.55-26.3466 33.49-24.837000000000003 34.99-23.7252 36.5-22.6236 38.35-21.5628 40.2-20.502000000000002 42.03-19.2984 43.86-18.084600000000002 45.36-16.677000000000003 46.87-15.269400000000001 47.81-13.1274 48.75-10.9854 48.75-8.313L48.75-8.313Q48.75-4.539000000000001 46.38-2.1420000000000003 44.01 0.255 40.2 0.255L40.2 0.255Q36.94 0.255 33.26-0.6834 29.58-1.6116000000000001 28.05-2.8764ZM74.18 0.8058000000000001L74.18 0.8058000000000001 74.97 2.8764Q72.75 2.8254 70.33 1.4076 67.91 0 65.81-2.1420000000000003 63.71-4.284000000000001 62.06-6.476999999999999 60.4-8.67 59.22-10.7814L59.22-10.7814 55.32-11.2302Q55.42-7.5582 55.71 0.20400000000000001L55.71 0.20400000000000001Q55.27 1.7646 53.98 1.7646L53.98 1.7646Q53.09 1.7646 52.28 1.0302 51.46 0.306 51.27-0.7548L51.27-0.7548Q51.41-4.9878 51.59-17.227800000000002 51.76-29.4678 52.06-36.169200000000004L52.06-36.169200000000004 54.28-36.771Q54.28-35.1594 54.33-34.9656L54.33-34.9656Q57.14-36.873 62.23-36.873L62.23-36.873Q67.71-36.873 70.43-33.3744 73.15-29.875799999999998 73.15-23.5722L73.15-23.5722Q73.15-21.256800000000002 72.6-19.1148 72.06-16.9728 71-15.1164 69.94-13.2498 68.06-12.036000000000001 66.18-10.8324 63.76-10.628400000000001L63.76-10.628400000000001Q65.49-6.9564 68.4-3.4782 71.32 0 74.18 0.8058000000000001ZM54.77-31.589399999999998L54.77-31.589399999999998 55.17-15.8712Q57.88-14.361600000000001 61.44-14.361600000000001L61.44-14.361600000000001Q64.85-14.361600000000001 67.22-16.9728 69.59-19.5942 69.59-23.378400000000003L69.59-23.378400000000003Q69.59-27.4584 67.12-30.732599999999998 64.65-34.006800000000005 60.95-34.006800000000005L60.95-34.006800000000005Q57.93-34.006800000000005 54.77-31.589399999999998ZM73.99-33.8028L73.99-33.8028 73.49-36.0672 92.36-37.179Q93.59-37.128 94.43-36.2712 95.27-35.4144 95.27-34.404599999999995L95.27-34.404599999999995Q95.27-33.7518 94.78-33.252 94.29-32.742000000000004 93.3-32.64L93.3-32.64 85-33.099000000000004Q86.23-15.3102 86.83-0.7548L86.83-0.7548Q86.38 0.7548 85.15 0.7548L85.15 0.7548Q84.26 0.7548 83.42 0.0204 82.58-0.7038 82.38-1.7646L82.38-1.7646Q82.48-4.488 82.48-10.0266L82.48-10.0266Q82.48-12.087 82.46-16.218 82.43-20.349 82.43-22.4196L82.43-22.4196Q82.43-28.4172 82.63-33.252L82.63-33.252Q77.05-33.649800000000006 73.99-33.8028ZM95.17-21.7668L95.17-21.7668 94.19-24.3372Q95.47-25.6428 97.45-26.418 99.42-27.203400000000002 101.35-27.203400000000002L101.35-27.203400000000002Q109.69-27.203400000000002 109.69-12.495000000000001L109.69-12.495000000000001Q109.69-10.4754 109.47-6.5484 109.25-2.6214 109.25-0.6528L109.25-0.6528Q108.86 0.9078 107.72 0.9078L107.72 0.9078Q106.83 0.9078 106.09 0 105.35-0.9078 105.35-2.0196L105.35-2.0196Q105.35-2.3664 105.4-2.5194L105.4-2.5194Q102.34 0.4998 98.88 0.4998L98.88 0.4998Q96.26 0.4998 94.31-1.4382 92.36-3.3762000000000003 92.36-6.150600000000001L92.36-6.150600000000001Q92.36-10.8324 95.94-14.6064 99.52-18.390600000000003 104.06-18.390600000000003L104.06-18.390600000000003Q104.26-18.390600000000003 104.46-18.36 104.66-18.3396 104.93-18.2886 105.2-18.2376 105.35-18.2376L105.35-18.2376Q104.95-24.133200000000002 100.76-24.133200000000002L100.76-24.133200000000002Q98.29-24.133200000000002 95.17-21.7668ZM105.5-5.9976L105.5-5.9976Q105.6-9.5166 105.6-11.3322L105.6-11.3322Q105.6-12.8418 105.5-15.5652L105.5-15.5652 105.1-15.5652Q101.6-15.5142 98.71-12.892800000000001 95.82-10.281600000000001 95.82-6.5484L95.82-6.5484Q95.82-4.9368 96.78-3.9779999999999998 97.74-3.0192 99.13-3.0192L99.13-3.0192Q101.3-3.0192 105.5-5.9976ZM128.91-24.286199999999997L128.91-24.286199999999997 128.41-22.2666Q123.62-24.286199999999997 120.96-24.286199999999997L120.96-24.286199999999997Q118.59-24.286199999999997 117.62-23.5518 116.66-22.817400000000003 116.66-20.451L116.66-20.451Q116.66-18.5436 118.02-17.2788 119.38-16.0242 121.3-15.2898 123.23-14.5554 125.18-13.7292 127.13-12.892800000000001 128.49-11.2812 129.85-9.6696 129.85-7.3032L129.85-7.3032Q129.85-4.08 127.52-1.6625999999999999 125.2 0.7548 121.5 0.8058000000000001L121.5 0.8058000000000001Q118.78 0.8058000000000001 116.41-0.357 114.04-1.5096 112.66-3.2742L112.66-3.2742 114.09-4.7838Q114.68-4.539000000000001 115.84-3.9779999999999998 117-3.4272 117.5-3.2538 117.99-3.0702 118.96-2.8764 119.92-2.6724 121.01-2.6724L121.01-2.6724Q123.33-2.6724 124.81-3.723 126.29-4.7838 126.29-6.7014000000000005L126.29-6.7014000000000005Q126.29-7.9559999999999995 125.6-8.8434 124.91-9.7206 123.77-10.281600000000001 122.64-10.8324 121.28-11.3322 119.92-11.8422 118.56-12.464400000000001 117.2-13.0968 116.07-13.984200000000001 114.93-14.8614 114.24-16.371000000000002 113.55-17.8806 113.55-19.9512L113.55-19.9512Q113.55-22.9704 115.15-25.0104 116.76-27.0504 119.67-27.0504L119.67-27.0504Q120.81-27.0504 122.24-26.7036 123.67-26.3466 124.51-26.0406 125.35-25.744799999999998 127.01-25.0614 128.66-24.378 128.91-24.286199999999997ZM150.89 0L150.89 0 146.34-0.10200000000000001Q144.51-1.9686 141.33-6.12 138.14-10.281600000000001 137.3-11.2302L137.3-11.2302 137.3-0.8568Q136.86 0.6528 135.58 0.6528L135.58 0.6528Q134.69 0.6528 133.87-0.0714 133.06-0.8058000000000001 132.86-1.8666L132.86-1.8666Q133.01-7.0482000000000005 133.01-19.0944 133.01-31.1304 133.2-36.3732L133.2-36.3732 136.22-35.720400000000005Q136.27-33.7008 136.39-27.4584 136.51-21.2058 136.61-18.1356L136.61-18.1356 148.61-27.1014 149.45-24.837000000000003Q144.76-21.358800000000002 138.44-15.0144L138.44-15.0144Q139.77-13.5558 144.34-7.884600000000001 148.91-2.2134 150.89 0ZM168.07-24.286199999999997L168.07-24.286199999999997 167.58-22.2666Q162.79-24.286199999999997 160.12-24.286199999999997L160.12-24.286199999999997Q157.75-24.286199999999997 156.79-23.5518 155.83-22.817400000000003 155.83-20.451L155.83-20.451Q155.83-18.5436 157.18-17.2788 158.54-16.0242 160.47-15.2898 162.39-14.5554 164.34-13.7292 166.3-12.892800000000001 167.65-11.2812 169.01-9.6696 169.01-7.3032L169.01-7.3032Q169.01-4.08 166.69-1.6625999999999999 164.37 0.7548 160.67 0.8058000000000001L160.67 0.8058000000000001Q157.95 0.8058000000000001 155.58-0.357 153.21-1.5096 151.82-3.2742L151.82-3.2742 153.26-4.7838Q153.85-4.539000000000001 155.01-3.9779999999999998 156.17-3.4272 156.66-3.2538 157.16-3.0702 158.12-2.8764 159.08-2.6724 160.17-2.6724L160.17-2.6724Q162.49-2.6724 163.97-3.723 165.46-4.7838 165.46-6.7014000000000005L165.46-6.7014000000000005Q165.46-7.9559999999999995 164.76-8.8434 164.07-9.7206 162.94-10.281600000000001 161.8-10.8324 160.44-11.3322 159.08-11.8422 157.73-12.464400000000001 156.37-13.0968 155.23-13.984200000000001 154.1-14.8614 153.4-16.371000000000002 152.71-17.8806 152.71-19.9512L152.71-19.9512Q152.71-22.9704 154.32-25.0104 155.92-27.0504 158.84-27.0504L158.84-27.0504Q159.97-27.0504 161.41-26.7036 162.84-26.3466 163.68-26.0406 164.52-25.744799999999998 166.17-25.0614 167.83-24.378 168.07-24.286199999999997Z" transform="translate(-2.0199999809265137, 38.6885986328125)"/></g> </g></g> </g></g><defs v-gra="od"/>
  </svg>
</svg>


