<svg xmlns="http://www.w3.org/2000/svg" xmlns:xlink="http://www.w3.org/1999/xlink" version="1.0" x="0" y="0" width="2400" height="3262.7774107689947" viewBox="139.4 83.39958801269532 61.2 83.20082397460938" preserveAspectRatio="xMidYMid meet" color-interpolation-filters="sRGB"><g><defs><linearGradient id="92" x1="0%" y1="0%" x2="100%" y2="0%"><stop offset="0%" stop-color="#fa71cd"></stop> <stop offset="100%" stop-color="#9b59b6"></stop></linearGradient><linearGradient id="93" x1="0%" y1="0%" x2="100%" y2="0%"><stop offset="0%" stop-color="#f9d423"></stop> <stop offset="100%" stop-color="#f83600"></stop></linearGradient><linearGradient id="94" x1="0%" y1="0%" x2="100%" y2="0%"><stop offset="0%" stop-color="#0064d2"></stop> <stop offset="100%" stop-color="#1cb0f6"></stop></linearGradient><linearGradient id="95" x1="0%" y1="0%" x2="100%" y2="0%"><stop offset="0%" stop-color="#f00978"></stop> <stop offset="100%" stop-color="#3f51b1"></stop></linearGradient><linearGradient id="96" x1="0%" y1="0%" x2="100%" y2="0%"><stop offset="0%" stop-color="#7873f5"></stop> <stop offset="100%" stop-color="#ec77ab"></stop></linearGradient><linearGradient id="97" x1="0%" y1="0%" x2="100%" y2="0%"><stop offset="0%" stop-color="#f9d423"></stop> <stop offset="100%" stop-color="#e14fad"></stop></linearGradient><linearGradient id="98" x1="0%" y1="0%" x2="100%" y2="0%"><stop offset="0%" stop-color="#009efd"></stop> <stop offset="100%" stop-color="#2af598"></stop></linearGradient><linearGradient id="99" x1="0%" y1="0%" x2="100%" y2="0%"><stop offset="0%" stop-color="#ffcc00"></stop> <stop offset="100%" stop-color="#00b140"></stop></linearGradient><linearGradient id="100" x1="0%" y1="0%" x2="100%" y2="0%"><stop offset="0%" stop-color="#d51007"></stop> <stop offset="100%" stop-color="#ff8177"></stop></linearGradient><linearGradient id="102" x1="0%" y1="0%" x2="100%" y2="0%"><stop offset="0%" stop-color="#a2b6df"></stop> <stop offset="100%" stop-color="#0c3483"></stop></linearGradient><linearGradient id="103" x1="0%" y1="0%" x2="100%" y2="0%"><stop offset="0%" stop-color="#7ac5d8"></stop> <stop offset="100%" stop-color="#eea2a2"></stop></linearGradient><linearGradient id="104" x1="0%" y1="0%" x2="100%" y2="0%"><stop offset="0%" stop-color="#00ecbc"></stop> <stop offset="100%" stop-color="#007adf"></stop></linearGradient><linearGradient id="105" x1="0%" y1="0%" x2="100%" y2="0%"><stop offset="0%" stop-color="#b88746"></stop> <stop offset="100%" stop-color="#fdf5a6"></stop></linearGradient></defs><g class="imagesvg isNoFont" transform="translate(140,83.99958801269531)"><g><rect fill="#ec7210" fill-opacity="0" stroke-width="2" x="0" y="0" width="60" height="82.00082000820008" class="image-rect"></rect> <svg filter="url(#colors2113799559)" x="0" y="0" width="60" height="82.00082000820008" filtersec="colorsf8176366276" class="image-svg-svg primary" style="overflow: visible;"><svg xmlns="http://www.w3.org/2000/svg" xmlns:xlink="http://www.w3.org/1999/xlink" version="1.1" x="0px" y="0px" viewBox="17.07400131225586 5 65.85198974609375 89.99899291992188" enable-background="new 0 0 100 100" xml:space="preserve"><path d="M39.024,82.378H28.049c-0.606,0-1.098-0.491-1.098-1.099V70.305c0-0.605,0.491-1.098,1.098-1.098h10.976  c0.606,0,1.098,0.491,1.098,1.098v10.975C40.122,81.887,39.631,82.378,39.024,82.378z M29.146,80.184h8.78v-8.781h-8.78V80.184z"></path><path d="M71.402,39.024H45.061c-0.303,0-0.549-0.246-0.549-0.549V36.28c0-0.304,0.246-0.549,0.549-0.549h26.341  c0.305,0,0.55,0.245,0.55,0.549v2.195C71.951,38.778,71.706,39.024,71.402,39.024z"></path><path d="M71.402,58.23H45.061c-0.303,0-0.549-0.246-0.549-0.549v-2.193c0-0.305,0.246-0.549,0.549-0.549h26.341  c0.305,0,0.55,0.244,0.55,0.549v2.193C71.951,57.984,71.706,58.23,71.402,58.23z"></path><path d="M71.402,77.439H45.061c-0.303,0-0.549-0.248-0.549-0.549v-2.195c0-0.305,0.246-0.549,0.549-0.549h26.341  c0.305,0,0.55,0.244,0.55,0.549v2.195C71.951,77.191,71.706,77.439,71.402,77.439z"></path><path d="M77.439,18.171H64.816v2.854h12.623c1.451,0,2.634,1.181,2.634,2.634v65.854c0,1.451-1.183,2.635-2.634,2.635H22.561  c-1.452,0-2.634-1.184-2.634-2.635V23.658c0-1.453,1.182-2.634,2.634-2.634h12.622V18.17H22.561c-3.03,0-5.487,2.456-5.487,5.487  v65.854c0,3.031,2.457,5.488,5.487,5.488h54.878c3.031,0,5.487-2.457,5.487-5.488V23.658C82.927,20.627,80.471,18.171,77.439,18.171  z"></path><path d="M50,7.854c2.359,0,4.281,1.921,4.281,4.28c0,2.36-1.922,4.281-4.281,4.281c-2.36,0-4.281-1.921-4.281-4.281  C45.719,9.774,47.64,7.854,50,7.854 M50,5c-3.939,0-7.134,3.194-7.134,7.134c0,3.938,3.194,7.135,7.134,7.135  c3.941,0,7.134-3.196,7.134-7.135C57.134,8.194,53.941,5,50,5L50,5z"></path><path d="M37.927,37.577v4.191h-8.78v-8.78h7.081l2.078-2.195H28.049c-0.606,0-1.098,0.49-1.098,1.098v10.976  c0,0.606,0.491,1.098,1.098,1.098h10.976c0.606,0,1.098-0.491,1.098-1.098v-7.608L37.927,37.577z"></path><path d="M37.927,56.785v4.189h-8.78v-8.779h7.081L38.306,50H28.049c-0.606,0-1.098,0.491-1.098,1.098v10.977  c0,0.605,0.491,1.098,1.098,1.098h10.976c0.606,0,1.098-0.49,1.098-1.098v-7.608L37.927,56.785z"></path><path d="M62.073,12.353h-6.608c-0.041,1.053-0.363,2.034-0.919,2.854h7.527c0.727,0,1.317,0.592,1.317,1.318v5.487  c0,0.728-0.592,1.316-1.317,1.316H37.927c-0.727,0-1.317-0.589-1.317-1.316v-5.487c0-0.727,0.591-1.318,1.317-1.318h7.527  c-0.555-0.819-0.878-1.801-0.919-2.854h-6.608c-2.3,0-4.171,1.872-4.171,4.172v5.487c0,2.301,1.871,4.17,4.171,4.17h24.146  c2.3,0,4.171-1.869,4.171-4.17v-5.487C66.244,14.225,64.373,12.353,62.073,12.353z"></path><path d="M33.536,40.122c-0.04,0-0.081-0.002-0.121-0.007c-0.342-0.038-0.646-0.235-0.821-0.531l-1.803-3.033  c-0.311-0.521-0.14-1.194,0.382-1.503c0.521-0.313,1.194-0.14,1.504,0.382l1.062,1.785l6.272-6.628  c0.417-0.441,1.112-0.459,1.552-0.043s0.459,1.11,0.043,1.552l-7.271,7.684C34.125,39.998,33.837,40.122,33.536,40.122z"></path><path d="M33.536,59.329c-0.04,0-0.081-0.002-0.121-0.006c-0.342-0.039-0.646-0.236-0.821-0.532l-1.803-3.033  c-0.311-0.521-0.14-1.193,0.382-1.503c0.521-0.313,1.194-0.139,1.504,0.382l1.062,1.786l6.272-6.629  c0.417-0.439,1.112-0.458,1.552-0.043c0.439,0.416,0.459,1.11,0.043,1.554l-7.271,7.682C34.125,59.205,33.837,59.329,33.536,59.329z  "></path></svg></svg> <defs><filter id="colors2113799559"><feColorMatrix type="matrix" values="0 0 0 0 0.921875  0 0 0 0 0.4453125  0 0 0 0 0.0625  0 0 0 1 0" class="icon-feColorMatrix "></feColorMatrix></filter> <filter id="colorsf8176366276"><feColorMatrix type="matrix" values="0 0 0 0 0.99609375  0 0 0 0 0.99609375  0 0 0 0 0.99609375  0 0 0 1 0" class="icon-fecolormatrix"></feColorMatrix></filter> <filter id="colorsb2423386393"><feColorMatrix type="matrix" values="0 0 0 0 0  0 0 0 0 0  0 0 0 0 0  0 0 0 1 0" class="icon-fecolormatrix"></feColorMatrix></filter></defs></g></g><defs v-gra="od"></defs></g></svg>